<svg xmlns="http://www.w3.org/2000/svg" width="1200" height="364" viewBox="0 0 1200 364">
<title>AII Ranking</title>
<text x="600.00" y="30.00" font-size="18" font-weight="bold" text-anchor="middle" fill="#333">MDP+STL Prioritization: Action Influence Index (AII) by Law</text>
<text x="80.00" y="55.00" font-size="12" font-weight="normal" text-anchor="start" fill="#333">AII (0-1)</text>
<line x1="80.00" y1="70.00" x2="1120.00" y2="70.00" stroke="#888" stroke-width="1.00" />
<line x1="80.00" y1="66.00" x2="80.00" y2="74.00" stroke="#888" stroke-width="1.00" />
<text x="80.00" y="60.00" font-size="12" font-weight="normal" text-anchor="middle" fill="#333">0.00</text>
<line x1="340.00" y1="66.00" x2="340.00" y2="74.00" stroke="#888" stroke-width="1.00" />
<text x="340.00" y="60.00" font-size="12" font-weight="normal" text-anchor="middle" fill="#333">0.25</text>
<line x1="600.00" y1="66.00" x2="600.00" y2="74.00" stroke="#888" stroke-width="1.00" />
<text x="600.00" y="60.00" font-size="12" font-weight="normal" text-anchor="middle" fill="#333">0.50</text>
<line x1="860.00" y1="66.00" x2="860.00" y2="74.00" stroke="#888" stroke-width="1.00" />
<text x="860.00" y="60.00" font-size="12" font-weight="normal" text-anchor="middle" fill="#333">0.75</text>
<line x1="1120.00" y1="66.00" x2="1120.00" y2="74.00" stroke="#888" stroke-width="1.00" />
<text x="1120.00" y="60.00" font-size="12" font-weight="normal" text-anchor="middle" fill="#333">1.00</text>
<text x="70.00" y="108.20" font-size="12" font-weight="normal" text-anchor="end" fill="#333">Law53_0_1</text>
<rect x="80.00" y="90.00" width="691.60" height="26.00" fill="#4E79A7" stroke="none" />
<text x="777.60" y="108.20" font-size="12" font-weight="normal" text-anchor="start" fill="#333">0.665</text>
<text x="70.00" y="142.20" font-size="12" font-weight="normal" text-anchor="end" fill="#333">Law38_2_2</text>
<rect x="80.00" y="124.00" width="688.48" height="26.00" fill="#4E79A7" stroke="none" />
<text x="774.48" y="142.20" font-size="12" font-weight="normal" text-anchor="start" fill="#333">0.662</text>
<text x="70.00" y="176.20" font-size="12" font-weight="normal" text-anchor="end" fill="#333">Law38_2_1</text>
<rect x="80.00" y="158.00" width="672.88" height="26.00" fill="#4E79A7" stroke="none" />
<text x="758.88" y="176.20" font-size="12" font-weight="normal" text-anchor="start" fill="#333">0.647</text>
<text x="70.00" y="210.20" font-size="12" font-weight="normal" text-anchor="end" fill="#333">Law38_1_1</text>
<rect x="80.00" y="192.00" width="607.36" height="26.00" fill="#4E79A7" stroke="none" />
<text x="693.36" y="210.20" font-size="12" font-weight="normal" text-anchor="start" fill="#333">0.584</text>
<text x="70.00" y="244.20" font-size="12" font-weight="normal" text-anchor="end" fill="#333">Law38_0_2</text>
<rect x="80.00" y="226.00" width="533.52" height="26.00" fill="#4E79A7" stroke="none" />
<text x="619.52" y="244.20" font-size="12" font-weight="normal" text-anchor="start" fill="#333">0.513</text>
<text x="70.00" y="278.20" font-size="12" font-weight="normal" text-anchor="end" fill="#333">Law44_2</text>
<rect x="80.00" y="260.00" width="440.96" height="26.00" fill="#4E79A7" stroke="none" />
<text x="526.96" y="278.20" font-size="12" font-weight="normal" text-anchor="start" fill="#333">0.424</text>
</svg>